<svg xmlns="http://www.w3.org/2000/svg" width="46" height="34.75" viewBox="0 0 46 34.75">
  <path id="EmailIcon" d="M40.781,64H4.219A4.219,4.219,0,0,0,0,68.219V93.531A4.219,4.219,0,0,0,4.219,97.75H40.781A4.219,4.219,0,0,0,45,93.531V68.219A4.219,4.219,0,0,0,40.781,64Zm0,4.219v3.586c-1.971,1.6-5.112,4.1-11.829,9.359-1.48,1.164-4.412,3.961-6.452,3.929-2.04.033-4.973-2.765-6.452-3.929C9.332,75.906,6.19,73.41,4.219,71.805V68.219ZM4.219,93.531V77.219c2.014,1.6,4.87,3.855,9.223,7.264,1.921,1.512,5.285,4.85,9.058,4.83,3.754.02,7.076-3.269,9.057-4.829,4.353-3.409,7.21-5.66,9.224-7.264V93.531Z" transform="translate(0.5 -63.5)" fill="none" stroke="#fff" stroke-width="1"/>
</svg>
