<svg xmlns="http://www.w3.org/2000/svg" width="46.211" height="46.211" viewBox="0 0 46.211 46.211">
  <g id="instagramicon" transform="translate(0.605 0.605)">
    <path id="instagram-brands" d="M22.43,42.788A11.537,11.537,0,1,0,33.965,54.325,11.518,11.518,0,0,0,22.43,42.788Zm0,19.038a7.5,7.5,0,1,1,7.5-7.5,7.514,7.514,0,0,1-7.5,7.5Zm14.7-19.51a2.69,2.69,0,1,1-2.69-2.691A2.685,2.685,0,0,1,37.127,42.316Zm7.64,2.731c-.171-3.6-.994-6.8-3.634-9.429s-5.823-3.454-9.427-3.635c-3.714-.211-14.848-.211-18.562,0-3.594.171-6.786.994-9.427,3.625S.264,41.432.083,45.037c-.211,3.715-.211,14.851,0,18.566.171,3.6.994,6.8,3.634,9.429s5.823,3.454,9.427,3.635c3.714.211,14.848.211,18.562,0,3.6-.171,6.8-.994,9.427-3.635s3.453-5.824,3.634-9.429C44.978,59.888,44.978,48.762,44.767,45.047Zm-4.8,22.543a7.593,7.593,0,0,1-4.277,4.278c-2.962,1.175-9.989.9-13.262.9s-10.31.261-13.262-.9A7.593,7.593,0,0,1,4.892,67.59c-1.175-2.962-.9-9.991-.9-13.265s-.261-10.312.9-13.265a7.593,7.593,0,0,1,4.277-4.278c2.962-1.175,9.989-.9,13.262-.9s10.31-.261,13.262.9a7.593,7.593,0,0,1,4.277,4.278c1.175,2.962.9,9.991.9,13.265S41.143,64.637,39.968,67.59Z" transform="translate(0.075 -31.825)" fill="none" stroke="#fff" stroke-width="1"/>
  </g>
</svg>
