<svg id="MarcaIcon" xmlns="http://www.w3.org/2000/svg" width="45" height="45" viewBox="0 0 45 45">
  <g id="Rectángulo_10">
    <rect id="Rectángulo_12" data-name="Rectángulo 12" width="45" height="45" fill="none"/>
    <rect id="Rectángulo_13" data-name="Rectángulo 13" width="44" height="44" transform="translate(0.5 0.5)" fill="none" stroke="#fff" stroke-width="1"/>
  </g>
  <g id="Rectángulo_11" transform="translate(3 4)">
    <line id="Línea_11" data-name="Línea 11" x1="39" transform="translate(0 32)" fill="none"/>
    <path id="Trazado_2" data-name="Trazado 2" d="M0,32.3V.3H39v32" transform="translate(0 -0.3)" fill="none"/>
    <rect id="Rectángulo_14" data-name="Rectángulo 14" width="38" height="31" transform="translate(0.5 0.5)" fill="none" stroke="#fff" stroke-width="1"/>
  </g>
  <g id="Elipse_8" transform="translate(14.5 8)">
    <circle id="Elipse_10" data-name="Elipse 10" cx="8" cy="8" r="8" fill="none"/>
    <circle id="Elipse_11" data-name="Elipse 11" cx="7.5" cy="7.5" r="7.5" transform="translate(0.5 0.5)" fill="none" stroke="#fff" stroke-width="1"/>
  </g>
  <g id="Elipse_9" transform="translate(10 23.5)">
    <path id="Trazado_3" data-name="Trazado 3" d="M24.8,17.5" transform="translate(-0.5 -6.732)" fill="none" stroke="#fff" stroke-width="1"/>
    <path id="Trazado_4" data-name="Trazado 4" d="M25.5,13.3" transform="translate(-0.5 -5.24)" fill="none" stroke="#fff" stroke-width="1"/>
    <path id="Trazado_5" data-name="Trazado 5" d="M.5,13.3a12.5,12.5,0,1,1,25,0" transform="translate(-0.5 -0.8)" fill="none" stroke="#fff" stroke-width="1"/>
    <path id="Trazado_6" data-name="Trazado 6" d="M.5,13.3" transform="translate(-0.5 -5.24)" fill="none" stroke="#fff" stroke-width="1"/>
    <path id="Trazado_7" data-name="Trazado 7" d="M13,25.8" transform="translate(-0.5 -9.68)" fill="none" stroke="#fff" stroke-width="1"/>
  </g>
</svg>
