<svg xmlns="http://www.w3.org/2000/svg" width="46.049" height="46.092" viewBox="0 0 46.049 46.092">
  <path id="portfolioIcon" d="M17.968.407A22.381,22.381,0,0,0,.468,17.845C-2.784,34.281,12.044,46.534,23.215,44.8c3.621-.563,5.4-4.8,3.735-8.06A5.947,5.947,0,0,1,32.3,28.094h7.005a5.751,5.751,0,0,0,5.7-5.739A22.517,22.517,0,0,0,17.968.407ZM8.449,28.094a2.813,2.813,0,1,1,2.813-2.813A2.81,2.81,0,0,1,8.449,28.094Zm2.813-11.25a2.813,2.813,0,1,1,2.813-2.813A2.81,2.81,0,0,1,11.261,16.843Zm11.25-5.625a2.813,2.813,0,1,1,2.813-2.813A2.81,2.81,0,0,1,22.512,11.218Zm11.25,5.625a2.813,2.813,0,1,1,2.813-2.813A2.81,2.81,0,0,1,33.762,16.843Z" transform="translate(0.536 0.581)" fill="none" stroke="#fff" stroke-width="1"/>
</svg>
