<svg xmlns="http://www.w3.org/2000/svg" width="47.422" height="47.407" viewBox="0 0 47.422 47.407">
  <g id="WhatsappIcon" transform="translate(1.422 -31)" fill="none">
    <path d="M38.26,38.539a22.306,22.306,0,0,0-35.1,26.91L0,77l11.823-3.1A22.231,22.231,0,0,0,22.48,76.608h.01A22.158,22.158,0,0,0,38.26,38.539ZM22.49,72.852a18.5,18.5,0,0,1-9.442-2.581l-.673-.4L5.364,71.706l1.868-6.84-.442-.7a18.57,18.57,0,1,1,34.443-9.854A18.741,18.741,0,0,1,22.49,72.852ZM32.655,58.97c-.552-.281-3.295-1.627-3.807-1.808s-.884-.281-1.256.281-1.436,1.808-1.768,2.19-.653.422-1.205.141c-3.275-1.637-5.424-2.923-7.584-6.629-.573-.984.573-.914,1.637-3.044a1.033,1.033,0,0,0-.05-.974c-.141-.281-1.256-3.023-1.718-4.138-.452-1.085-.914-.934-1.256-.954-.321-.02-.693-.02-1.065-.02a2.064,2.064,0,0,0-1.487.693,6.261,6.261,0,0,0-1.949,4.651c0,2.742,2,5.394,2.27,5.766s3.927,6,9.522,8.417c3.536,1.527,4.922,1.657,6.69,1.4,1.075-.161,3.295-1.346,3.757-2.652a4.66,4.66,0,0,0,.321-2.652C33.579,59.382,33.208,59.241,32.655,58.97Z" stroke="none"/>
    <path d="M 22.48995018005371 32 C 10.19530868530273 32 0.1908493041992188 42.00446319580078 0.1908493041992188 54.29909896850586 C 0.1908493041992188 58.22655868530273 1.215400695800781 62.0636100769043 3.164058685302734 65.44865417480469 L 0 77 L 11.82254028320313 73.89620971679688 C 15.0770092010498 75.67410278320313 18.74331092834473 76.60823822021484 22.47990989685059 76.60823822021484 L 22.48995018005371 76.60823822021484 C 34.77455139160156 76.60823822021484 45 66.60379028320313 45 54.30915069580078 C 45 48.35266876220703 42.46875 42.7578125 38.26004028320313 38.5390625 C 34.05133819580078 34.3203125 28.44643020629883 32 22.48995018005371 32 M 22.48995018005371 72.85154724121094 C 19.1551399230957 72.85154724121094 15.8906192779541 71.95758056640625 13.0479907989502 70.27009582519531 L 12.375 69.8682861328125 L 5.363838195800781 71.70646667480469 L 7.232139587402344 64.86607360839844 L 6.790180206298828 64.16294097900391 C 4.931919097900391 61.20981979370117 3.957588195800781 57.80467987060547 3.957588195800781 54.29909896850586 C 3.957588195800781 44.08370208740234 12.27455139160156 35.76673889160156 22.5 35.76673889160156 C 27.4520092010498 35.76673889160156 32.10268020629883 37.6953125 35.59820938110352 41.20088958740234 C 39.09375 44.70646667480469 41.24330139160156 49.35713958740234 41.23326110839844 54.30915069580078 C 41.23326110839844 64.53459167480469 32.70536041259766 72.85154724121094 22.48995018005371 72.85154724121094 M 14.58481979370117 44.01338195800781 C 14.21316909790039 44.01338195800781 13.6104907989502 44.15400695800781 13.09820938110352 44.70646667480469 C 12.58592987060547 45.26897048950195 11.14955139160156 46.61494064331055 11.14955139160156 49.35712814331055 C 11.14955139160156 52.09931945800781 13.14842987060547 54.7511100769043 13.41963958740234 55.12276077270508 C 13.70088958740234 55.49441146850586 17.34708976745605 61.11941146850586 22.94195938110352 63.54018020629883 C 25.58683776855469 64.68227386474609 27.02890968322754 65.04310607910156 28.32767105102539 65.04310607910156 C 28.76511192321777 65.04310607910156 29.18627166748047 65.00218200683594 29.63169097900391 64.93637847900391 C 30.70647048950195 64.77566528320313 32.92633056640625 63.59038925170898 33.38838958740234 62.28459167480469 C 33.85044097900391 60.97879028320313 33.85044097900391 59.86383056640625 33.70981979370117 59.6328010559082 C 33.57923889160156 59.38169097900391 33.20758819580078 59.24106979370117 32.65512847900391 58.9698600769043 C 32.10268020629883 58.6886100769043 29.36048889160156 57.34262084960938 28.84820938110352 57.16181945800781 C 28.62621879577637 57.07911682128906 28.43055725097656 57.01527786254883 28.24993515014648 57.0152587890625 C 28.01375389099121 57.01523590087891 27.80323219299316 57.12433624267578 27.59263038635254 57.44306945800781 C 27.22097969055176 58.00556945800781 26.15625 59.2511100769043 25.82477951049805 59.6328010559082 C 25.64060211181641 59.84575653076172 25.45311737060547 59.95318222045898 25.22266006469727 59.95318222045898 C 25.0509204864502 59.95318222045898 24.85531806945801 59.89352798461914 24.61941909790039 59.77342987060547 C 21.3448600769043 58.13615036010742 19.19531059265137 56.85042953491211 17.03570938110352 53.14397048950195 C 16.46316909790039 52.15959167480469 17.6082592010498 52.22990036010742 18.6729907989502 50.10044097900391 C 18.85379028320313 49.72879028320313 18.76338958740234 49.4073600769043 18.62277030944824 49.1261100769043 C 18.48213958740234 48.8448600769043 17.36718940734863 46.10266876220703 16.90513038635254 44.98771667480469 C 16.51773262023926 44.05796051025391 16.12289619445801 44.03573608398438 15.80294799804688 44.03573608398438 C 15.78693008422852 44.03573608398438 15.77110290527344 44.03578948974609 15.75547027587891 44.03578948974609 C 15.71902275085449 44.03578948974609 15.68371391296387 44.03549194335938 15.64954948425293 44.03347778320313 C 15.3281192779541 44.01338195800781 14.95647048950195 44.01338195800781 14.58481979370117 44.01338195800781 M 22.48995018005371 31 C 28.72027969360352 31 34.57228851318359 33.42659759521484 38.96799087524414 37.83280181884766 C 41.18172836303711 40.05181884765625 42.91701126098633 42.58917236328125 44.12564086914063 45.3743782043457 C 45.36936950683594 48.2404899597168 46 51.24657821655273 46 54.30915069580078 C 46 57.44734954833984 45.37033843994141 60.49798965454102 44.12852096557617 63.3763313293457 C 42.93344879150391 66.14627838134766 41.22616958618164 68.63755798339844 39.05410003662109 70.78097534179688 C 36.88753890991211 72.9189453125 34.37203979492188 74.59907531738281 31.57748031616211 75.77470397949219 C 28.68540000915527 76.99134826660156 25.62791061401367 77.60823822021484 22.48995018005371 77.60823822021484 L 22.47990989685059 77.60823822021484 C 18.72318840026855 77.60823822021484 15.00387573242188 76.69467163085938 11.69694900512695 74.96306610107422 L 0.2539291381835938 77.96722412109375 L -1.422309875488281 78.40728759765625 L -0.9644699096679688 76.73582458496094 L 2.090919494628906 65.58120727539063 C 0.1923866271972656 62.1397705078125 -0.8091506958007813 58.2484130859375 -0.8091506958007813 54.29909896850586 C -0.8091506958007813 41.45192718505859 9.642780303955078 31 22.48995018005371 31 Z M 22.48995018005371 71.85154724121094 C 32.27363967895508 71.85154724121094 40.23326110839844 63.98205947875977 40.23326110839844 54.30915069580078 C 40.24245071411133 49.77547836303711 38.34487152099609 45.37168884277344 34.89009094238281 41.906982421875 C 31.58485984802246 38.59224700927734 27.18464088439941 36.76673889160156 22.5 36.76673889160156 C 12.82707977294922 36.76673889160156 4.957588195800781 44.63172149658203 4.957588195800781 54.29909896850586 C 4.957588195800781 57.61846160888672 5.883960723876953 60.84516143798828 7.636558532714844 63.63034820556641 L 8.078781127929688 64.33390045166016 L 8.312538146972656 64.70579528808594 L 8.196811676025391 65.12954711914063 L 6.784568786621094 70.30018615722656 L 12.12139129638672 68.90098571777344 L 12.52732086181641 68.7945556640625 L 12.88763046264648 69.00968170166016 L 13.56061935424805 69.41149139404297 C 16.24891090393066 71.00735473632813 19.33736991882324 71.85154724121094 22.48995018005371 71.85154724121094 Z M 14.58481979370117 43.01338195800781 C 14.96561050415039 43.01338195800781 15.35935974121094 43.01338195800781 15.71195983886719 43.03543090820313 C 15.71800422668457 43.03577423095703 15.7252025604248 43.03585815429688 15.73301887512207 43.03585815429688 C 15.7401237487793 43.03585815429688 15.74774169921875 43.03578948974609 15.75547027587891 43.03578948974609 L 15.77701950073242 43.03575897216797 L 15.80294990539551 43.03572845458984 C 16.44182014465332 43.03572845458984 17.24935913085938 43.21388244628906 17.82821083068848 44.60310363769531 C 17.96582984924316 44.9351806640625 18.15987968444824 45.407958984375 18.36898994445801 45.91741943359375 C 18.78829956054688 46.93901062011719 19.42196083068848 48.48286056518555 19.51816940307617 48.68085098266602 C 19.8398609161377 49.32424926757813 19.85836982727051 49.94969940185547 19.57222938537598 50.53789901733398 L 19.56985092163086 50.54278945922852 L 19.56741905212402 50.54764938354492 C 19.02647018432617 51.62953948974609 18.46035003662109 52.22172927856445 18.08572959899902 52.61360168457031 C 18.04556846618652 52.65560913085938 18.00141716003418 52.7017936706543 17.96106719970703 52.74510192871094 C 19.97641754150391 56.15896224975586 21.99643135070801 57.34389495849609 25.06662940979004 58.87900161743164 L 25.06987953186035 58.88063049316406 L 25.0731201171875 58.88227844238281 C 25.09353256225586 58.89266967773438 25.11196327209473 58.90160369873047 25.12851905822754 58.90927505493164 C 25.59728622436523 58.36699676513672 26.46346855163574 57.33803176879883 26.7582893371582 56.89181137084961 C 27.23698043823242 56.16733169555664 27.83362007141113 56.0152587890625 28.24983978271484 56.0152587890625 C 28.60280990600586 56.01530075073242 28.92070579528809 56.12185668945313 29.19142150878906 56.22253799438477 C 29.82908248901367 56.45207977294922 32.70852661132813 57.87544631958008 33.10170745849609 58.0750846862793 C 33.18663787841797 58.11674118041992 33.26711273193359 58.15516662597656 33.34286880493164 58.19136810302734 C 33.84710693359375 58.43229293823242 34.32367706298828 58.6600341796875 34.58887100219727 59.15597152709961 C 34.99181747436523 59.89437484741211 34.74193572998047 61.45713806152344 34.33110809326172 62.61817169189453 C 33.68679809570313 64.43901062011719 31.0255298614502 65.73907470703125 29.77957916259766 65.92538452148438 C 29.2353401184082 66.00578308105469 28.77453994750977 66.04310607910156 28.32766914367676 66.04310607910156 C 26.80788993835449 66.04310607910156 25.18672943115234 65.5987548828125 22.54553031921387 64.45823669433594 C 17.78554916381836 62.39870834350586 14.33737945556641 58.17744064331055 12.70557022094727 55.8444709777832 C 12.66611099243164 55.78805923461914 12.6380500793457 55.74750137329102 12.62128829956055 55.72494125366211 L 12.61603927612305 55.71800994873047 L 12.61185836791992 55.71223831176758 L 12.58879852294922 55.68077087402344 C 11.67781829833984 54.43893814086914 10.14955139160156 51.96609878540039 10.14955139160156 49.35712814331055 C 10.14955139160156 46.40119171142578 11.62475967407227 44.82051086425781 12.25471115112305 44.14553070068359 C 12.29270935058594 44.10481262207031 12.3276481628418 44.06741333007813 12.35887145996094 44.03314208984375 L 12.36188888549805 44.02982330322266 L 12.36494064331055 44.02652740478516 C 13.21286010742188 43.11209869384766 14.1998405456543 43.01338195800781 14.58481979370117 43.01338195800781 Z" stroke="none" fill="#fff"/>
  </g>
</svg>
